HIERARCHY
ROOT Hips
{
	OFFSET 0.000000 0.000000 0.000000
	CHANNELS 6 Xposition Yposition Zposition Zrotation Yrotation Xrotation 
	JOINT LeftUpLeg_virtual
	{
		OFFSET 0.000000 0.000000 0.000000
		CHANNELS 3 Zrotation Yrotation Xrotation
		JOINT LeftUpLeg
		{
			OFFSET 10.205400 -3.823500 0.155100
			CHANNELS 3 Zrotation Yrotation Xrotation
			JOINT LeftLeg
			{
				OFFSET 0.708757 -12.982077 0.567790
				CHANNELS 3 Zrotation Yrotation Xrotation
				JOINT LeftFoot
				{
					OFFSET -0.708756 -10.717838 -2.184338
					CHANNELS 3 Zrotation Yrotation Xrotation
					JOINT LeftToeBase
					{
						OFFSET 0.108149 -7.191104 7.560241
						CHANNELS 3 Zrotation Yrotation Xrotation
						End Site
						{
							OFFSET 0.000000 0.000000 0.000000
						}
					}
				}
			}
		}
	}
	JOINT RightUpLeg_virtual
	{
		OFFSET 0.000000 0.000000 0.000000
		CHANNELS 3 Zrotation Yrotation Xrotation
		JOINT RightUpLeg
		{
			OFFSET -10.205400 -3.823500 0.005500
			CHANNELS 3 Zrotation Yrotation Xrotation
			JOINT RightLeg
			{
				OFFSET -0.708756 -12.982134 0.610632
				CHANNELS 3 Zrotation Yrotation Xrotation
				JOINT RightFoot
				{
					OFFSET 0.708754 -10.717769 -1.945823
					CHANNELS 3 Zrotation Yrotation Xrotation
					JOINT RightToeBase
					{
						OFFSET -0.108140 -7.191069 7.372968
						CHANNELS 3 Zrotation Yrotation Xrotation
						End Site
						{
							OFFSET 0.000000 0.000000 0.000000
						}
					}
				}
			}
		}
	}
	JOINT Spine_virtual
	{
		OFFSET 0.000000 0.000000 0.000000
		CHANNELS 3 Zrotation Yrotation Xrotation
		JOINT Spine
		{
			OFFSET 0.000000 6.876099 0.125700
			CHANNELS 3 Zrotation Yrotation Xrotation
			JOINT Spine1
			{
				OFFSET 0.000000 8.022060 0.146608
				CHANNELS 3 Zrotation Yrotation Xrotation
				JOINT Spine2
				{
					OFFSET 0.000000 9.168068 0.167552
					CHANNELS 3 Zrotation Yrotation Xrotation
					JOINT Neck_virtual
					{
						OFFSET 0.000000 0.000000 0.000000
						CHANNELS 3 Zrotation Yrotation Xrotation
						JOINT Neck
						{
							OFFSET 0.000000 10.314075 0.188496
							CHANNELS 3 Zrotation Yrotation Xrotation
							JOINT Head
							{
								OFFSET 0.000000 7.643700 -2.377400
								CHANNELS 3 Zrotation Yrotation Xrotation
								End Site
								{
									OFFSET 0.000000 0.000000 0.000000
								}
							}
						}
					}
					JOINT LeftShoulder_virtual
					{
						OFFSET 0.000000 0.000000 0.000000
						CHANNELS 3 Zrotation Yrotation Xrotation
						JOINT LeftShoulder
						{
							OFFSET 4.392200 8.824978 0.174984
							CHANNELS 3 Zrotation Yrotation Xrotation
							JOINT LeftArm
							{
								OFFSET 8.771219 -2.981674 -0.026999
								CHANNELS 3 Zrotation Yrotation Xrotation
								JOINT LeftForeArm
								{
									OFFSET 8.512804 0.000000 -0.000000
									CHANNELS 3 Zrotation Yrotation Xrotation
									JOINT LeftHand
									{
										OFFSET 18.484802 0.000000 -0.000000
										CHANNELS 3 Zrotation Yrotation Xrotation
										End Site
										{
											OFFSET 0.000000 0.000000 0.000000
										}
									}
								}
							}
						}
					}
					JOINT RightShoulder_virtual
					{
						OFFSET 0.000000 0.000000 0.000000
						CHANNELS 3 Zrotation Yrotation Xrotation
						JOINT RightShoulder
						{
							OFFSET -4.392200 8.824993 0.141379
							CHANNELS 3 Zrotation Yrotation Xrotation
							JOINT RightArm
							{
								OFFSET -8.771282 -2.981682 -0.094208
								CHANNELS 3 Zrotation Yrotation Xrotation
								JOINT RightForeArm
								{
									OFFSET -8.494598 0.000000 0.000000
									CHANNELS 3 Zrotation Yrotation Xrotation
									JOINT RightHand
									{
										OFFSET -18.483803 0.000000 0.000001
										CHANNELS 3 Zrotation Yrotation Xrotation
										End Site
										{
											OFFSET 0.000000 0.000000 0.000000
										}
									}
								}
							}
						}
					}
				}
			}
		}
	}
}
MOTION
Frames: 8
Frame Time: 0.033333
6.336261 36.348660 6.822180 179.776357 4.574090 -179.866994 -1.573954 -3.225911 9.926585 -9.388882 0.412934 -17.094819 8.386947 8.077772 16.698523 -4.762586 0.744799 12.621536 0.000000 0.000000 0.000000 3.084980 -1.106791 9.026115 1.820286 -6.612023 -6.384115 -6.740902 -2.769074 13.636320 6.889903 6.602171 7.539706 0.000000 0.000000 0.000000 1.807548 0.572576 -0.450257 -4.841786 1.170650 -6.704274 1.932971 -3.881632 4.218177 0.041235 0.057279 0.009802 1.644563 -2.292876 6.045429 1.007846 2.994737 1.896408 0.000000 0.000000 0.000000 2.913547 -1.426081 3.516415 0.813890 -2.381894 -5.115778 -20.413140 29.441466 -28.765263 -4.835678 -31.559476 -2.763696 0.000000 0.000000 0.000000 -0.372175 -0.695629 3.031742 11.052835 -2.532566 -6.952641 21.215138 -27.855193 -30.499093 -1.343233 31.213462 -3.539207 0.000000 0.000000 0.000000 
6.355422 36.340755 6.819625 179.585098 4.628839 -179.769732 -1.515406 -3.622219 10.037073 -9.926281 1.195905 -16.942195 8.089889 8.763334 17.174958 -3.644423 1.920171 13.222720 0.000000 0.000000 0.000000 3.203136 -1.260341 9.107735 1.972535 -6.918365 -6.236687 -6.765660 -3.419895 13.905579 6.553806 6.348144 7.700385 0.000000 0.000000 0.000000 1.690642 0.508284 -0.581004 -4.887467 1.164016 -6.752030 1.845209 -3.896348 4.186536 0.015444 0.030103 0.040643 1.630174 -2.315267 6.038839 1.040340 2.987219 1.990709 0.000000 0.000000 0.000000 2.953758 -1.332741 3.426543 0.779015 -2.224831 -4.981448 -20.419506 29.487808 -28.629549 -4.808878 -31.656588 -2.831502 0.000000 0.000000 0.000000 -0.368872 -0.599921 3.090677 11.074841 -2.402307 -7.053365 21.165132 -27.656874 -30.330230 -1.306989 31.237693 -3.473763 0.000000 0.000000 0.000000 
6.388773 36.342823 6.823267 179.465283 4.585445 -179.774363 -1.662273 -3.577047 9.974105 -9.850591 1.175267 -16.900123 8.086232 8.559690 17.133512 -3.686797 1.940716 13.206587 0.000000 0.000000 0.000000 3.087342 -1.194883 9.061985 2.030361 -6.981651 -6.195031 -6.831979 -3.441500 14.008839 6.587721 6.288343 7.693713 0.000000 0.000000 0.000000 1.513208 0.507744 -0.623320 -4.853950 1.176213 -6.700105 1.834367 -3.887459 4.163857 0.060102 0.050734 0.030821 1.640745 -2.229961 6.012601 0.974072 2.904416 2.022606 0.000000 0.000000 0.000000 2.922348 -1.334438 3.403137 0.656024 -2.164875 -4.975057 -20.596871 29.420405 -28.731252 -4.766067 -31.526371 -2.736312 0.000000 0.000000 0.000000 -0.415090 -0.594376 3.017141 11.038513 -2.380924 -6.926851 21.161736 -27.425909 -30.349338 -1.262254 31.353850 -3.456392 0.000000 0.000000 0.000000 
6.424754 36.347137 6.826325 179.571793 4.650052 -179.742398 -1.546630 -3.563155 9.863871 -9.905163 1.223662 -16.822109 8.350154 8.525831 17.165520 -3.866865 1.761469 13.181478 0.000000 0.000000 0.000000 3.182973 -1.133579 8.995097 2.157315 -6.982549 -6.192622 -6.824301 -3.425344 14.065829 6.554408 6.164666 7.733010 0.000000 0.000000 0.000000 1.584001 0.498978 -0.745603 -4.744381 1.152880 -6.556615 1.771497 -3.887351 4.186012 0.042406 0.042961 -0.044660 1.508189 -2.192034 5.995899 0.921174 2.777354 2.088788 0.000000 0.000000 0.000000 2.819386 -1.288288 3.391258 0.562315 -2.071013 -4.876598 -20.615673 29.491746 -28.663767 -4.740424 -31.208569 -2.918662 0.000000 0.000000 0.000000 -0.492406 -0.581673 3.016501 11.044830 -2.289252 -7.032808 21.137158 -27.198404 -30.214537 -1.196157 31.450395 -3.466581 0.000000 0.000000 0.000000 
6.467569 36.351799 6.831433 179.507644 4.715318 -179.766713 -1.621754 -3.489605 9.766331 -9.808208 1.296444 -16.692111 8.316093 8.016607 17.100053 -3.973819 1.794597 13.166321 0.000000 0.000000 0.000000 3.129358 -1.011659 8.946564 2.250616 -6.920172 -6.185033 -6.865208 -3.418726 14.202539 6.542943 6.009991 7.754889 0.000000 0.000000 0.000000 1.461557 0.514003 -0.724366 -4.636125 1.120638 -6.503377 1.752558 -3.896039 4.133507 0.067579 0.034871 0.031103 1.407372 -2.333171 5.935901 0.840446 2.627056 2.140066 0.000000 0.000000 0.000000 2.775394 -1.289737 3.325611 0.501781 -2.042361 -4.796569 -20.738840 29.535346 -28.764891 -4.631338 -30.874265 -3.040924 0.000000 0.000000 0.000000 -0.546371 -0.585746 2.896660 11.032231 -2.201386 -7.007535 21.235569 -27.047541 -30.281265 -1.140026 31.563216 -3.451390 0.000000 0.000000 0.000000 
6.519757 36.357025 6.837785 179.445530 4.949280 -179.744938 -1.718459 -3.445409 9.643335 -9.647488 0.989824 -16.564201 8.444646 8.183164 17.172018 -3.889648 1.754103 13.078353 0.000000 0.000000 0.000000 3.077702 -0.900138 8.865930 2.337328 -6.829329 -6.239779 -6.892164 -3.361549 14.316679 6.515982 5.821465 7.743219 0.000000 0.000000 0.000000 1.335025 0.599140 -0.781701 -4.497046 1.135738 -6.417907 1.701582 -3.865510 4.098428 0.061752 0.070590 -0.012737 1.460975 -2.251035 5.840262 0.735903 2.452470 2.119255 0.000000 0.000000 0.000000 2.734747 -1.302928 3.298577 0.506941 -2.025975 -4.907682 -20.735305 29.631738 -28.479030 -4.577537 -30.631763 -3.061807 0.000000 0.000000 0.000000 -0.550596 -0.566377 2.898858 11.059767 -2.150978 -6.723943 21.540695 -27.052878 -30.575659 -1.128901 31.690479 -3.461312 0.000000 0.000000 0.000000 
6.571908 36.360523 6.850722 179.637185 5.231111 -179.713479 -1.536961 -3.358765 9.561182 -9.671807 1.225317 -16.507336 8.638716 7.881379 17.178923 -4.097507 1.606688 13.013677 0.000000 0.000000 0.000000 3.263391 -0.766933 8.801722 2.499388 -6.730747 -6.342877 -6.919768 -3.258788 14.456913 6.495280 5.632539 7.820261 0.000000 0.000000 0.000000 1.421068 0.510475 -0.869799 -4.233218 1.209250 -6.267205 1.655017 -3.752704 4.133877 0.039202 0.136448 0.038167 1.375571 -2.239299 5.729996 0.672656 2.281686 2.261888 0.000000 0.000000 0.000000 2.641836 -1.303352 3.277035 0.606723 -2.100603 -4.974689 -20.776317 29.629238 -28.132576 -4.513515 -30.512081 -2.963476 0.000000 0.000000 0.000000 -0.638358 -0.668830 2.772324 11.210209 -2.150979 -6.748997 21.909901 -27.135380 -30.575506 -1.186923 31.937196 -3.551767 0.000000 0.000000 0.000000 
6.630781 36.367680 6.869097 179.458849 5.535269 -179.754624 -1.786400 -3.279110 9.553637 -9.532577 1.244767 -16.495158 8.802406 7.790706 17.241301 -4.155947 1.470131 12.889027 0.000000 0.000000 0.000000 3.121531 -0.662245 8.805315 2.537649 -6.629500 -6.497818 -6.973034 -3.122979 14.644663 6.556631 5.463289 7.859933 0.000000 0.000000 0.000000 1.184967 0.716724 -0.762576 -4.073549 1.138791 -6.317711 1.580787 -3.849955 4.097408 0.058916 0.089000 0.044595 1.344631 -2.267301 5.844125 0.530501 2.062816 2.417919 0.000000 0.000000 0.000000 2.601806 -1.322092 3.225081 0.607319 -2.205801 -4.699684 -20.926520 29.499362 -27.789316 -4.324850 -30.679106 -2.895801 0.000000 0.000000 0.000000 -0.599522 -0.660437 2.838132 11.320504 -2.077748 -6.603444 22.395598 -27.418534 -30.671555 -1.211366 32.358725 -3.550637 0.000000 0.000000 0.000000 
